<svg xmlns="http://www.w3.org/2000/svg" width="21.625" height="20.447" fill="none" overflow="visible"><path d="M 21.621 9.329 C 20.498 9.124 19.788 9.311 18.82 9.956 C 17.743 10.669 17.122 11.726 16.681 12.893 C 16.307 13.883 16.161 14.925 16.093 15.979 C 16.049 16.565 15.982 17.167 15.86 17.74 C 15.758 18.195 15.439 18.393 14.971 18.341 C 14.815 18.314 14.654 18.271 14.499 18.216 C 13.388 17.777 12.652 16.902 12.053 15.901 C 11.381 14.72 10.886 13.448 10.581 12.11 C 10.106 10.112 9.675 8.11 9.294 6.092 C 9.09 4.991 8.822 4.167 8.409 3.323 C 8.092 2.671 7.662 2.044 7.1 1.347 C 6.67 0.904 6.488 0.637 5.907 0 C 4.189 0.881 3.095 2.024 2.569 2.636 C 1.916 3.406 1.061 4.635 0.523 6.303 C -0.229 8.607 0.002 10.587 0.171 11.542 C 0.34 12.497 0.79 14.226 2.05 15.977 C 2.588 16.719 4.015 18.502 6.579 19.591 C 8.579 20.434 10.367 20.484 11.386 20.434 C 13.037 20.339 14.324 19.894 15.043 19.584 C 16.401 19.007 17.4 18.252 18.053 17.666 C 19.062 16.76 19.749 15.795 20.201 15.003 C 20.983 13.621 21.297 12.372 21.434 11.638 C 21.537 11.154 21.649 10.336 21.621 9.329 Z" fill="rgb(26,22,21)"></path></svg>