<svg xmlns="http://www.w3.org/2000/svg" width="137.613" height="17" fill="none" overflow="visible"><path d="M 14.654 8.149 C 14.654 12.19 11.373 15.467 7.327 15.467 C 3.28 15.467 0 12.19 0 8.149 C 0 4.107 3.28 0.831 7.327 0.831 C 11.373 0.831 14.654 4.107 14.654 8.149 Z M 18.707 16.653 L 23.964 0 L 28.051 0 L 33.308 16.653 L 30.437 16.653 L 25.666 1.712 L 26.292 1.712 L 21.579 16.653 Z M 21.637 13.045 L 21.637 10.443 L 30.391 10.443 L 30.391 13.045 L 21.637 13.045 Z M 49.03 16.653 L 49.03 9.067 C 49.03 8.211 48.818 7.544 48.393 7.066 C 47.969 6.58 47.393 6.337 46.668 6.337 C 46.22 6.337 45.819 6.441 45.464 6.65 C 45.109 6.85 44.827 7.151 44.618 7.552 C 44.41 7.945 44.306 8.415 44.306 8.963 L 43.067 8.234 C 43.059 7.37 43.252 6.611 43.646 5.956 C 44.047 5.293 44.587 4.776 45.267 4.406 C 45.946 4.036 46.703 3.851 47.536 3.851 C 48.918 3.851 49.975 4.267 50.709 5.1 C 51.45 5.925 51.82 7.012 51.82 8.361 L 51.82 16.653 Z M 33.989 16.653 L 33.989 4.163 L 36.455 4.163 L 36.455 8.037 L 36.803 8.037 L 36.803 16.653 Z M 41.527 16.653 L 41.527 9.101 C 41.527 8.23 41.315 7.552 40.89 7.066 C 40.465 6.58 39.887 6.337 39.153 6.337 C 38.443 6.337 37.872 6.58 37.44 7.066 C 37.015 7.552 36.803 8.184 36.803 8.963 L 35.552 8.13 C 35.552 7.32 35.753 6.592 36.154 5.944 C 36.556 5.297 37.096 4.788 37.775 4.418 C 38.462 4.04 39.23 3.851 40.079 3.851 C 41.014 3.851 41.793 4.051 42.418 4.452 C 43.051 4.846 43.522 5.385 43.831 6.071 C 44.147 6.75 44.306 7.517 44.306 8.373 L 44.306 16.653 Z M 58.279 17 C 56.735 17 55.481 16.653 54.516 15.959 C 53.551 15.265 52.965 14.29 52.756 13.033 L 55.605 12.594 C 55.751 13.211 56.076 13.696 56.577 14.051 C 57.079 14.406 57.712 14.583 58.476 14.583 C 59.148 14.583 59.665 14.452 60.028 14.19 C 60.398 13.92 60.583 13.554 60.583 13.091 C 60.583 12.806 60.514 12.578 60.375 12.409 C 60.244 12.231 59.95 12.062 59.495 11.9 C 59.04 11.738 58.341 11.534 57.399 11.287 C 56.35 11.009 55.516 10.713 54.898 10.397 C 54.281 10.073 53.837 9.691 53.567 9.252 C 53.297 8.812 53.161 8.28 53.161 7.656 C 53.161 6.877 53.366 6.199 53.775 5.62 C 54.184 5.042 54.755 4.599 55.489 4.291 C 56.222 3.974 57.087 3.816 58.082 3.816 C 59.055 3.816 59.916 3.967 60.665 4.267 C 61.421 4.568 62.031 4.996 62.494 5.551 C 62.957 6.106 63.243 6.757 63.351 7.505 L 60.502 8.014 C 60.433 7.482 60.19 7.062 59.773 6.754 C 59.364 6.445 58.816 6.272 58.129 6.233 C 57.473 6.195 56.944 6.295 56.542 6.534 C 56.141 6.765 55.94 7.093 55.94 7.517 C 55.94 7.756 56.021 7.96 56.184 8.13 C 56.346 8.3 56.67 8.469 57.156 8.639 C 57.65 8.808 58.384 9.017 59.356 9.263 C 60.352 9.518 61.147 9.811 61.741 10.142 C 62.343 10.466 62.776 10.855 63.038 11.31 C 63.308 11.765 63.443 12.316 63.443 12.964 C 63.443 14.221 62.984 15.207 62.066 15.924 C 61.155 16.641 59.893 17 58.279 17 Z M 71.919 16.653 C 71.093 16.807 70.283 16.873 69.488 16.85 C 68.701 16.834 67.994 16.692 67.369 16.422 C 66.744 16.144 66.269 15.709 65.945 15.115 C 65.659 14.575 65.509 14.024 65.493 13.461 C 65.477 12.825 65.469 12.189 65.47 11.553 L 65.47 0.694 L 68.249 0.694 L 68.249 11.391 C 68.249 11.892 68.253 12.332 68.26 12.71 C 68.276 13.087 68.357 13.396 68.504 13.635 C 68.782 14.097 69.225 14.356 69.835 14.41 C 70.445 14.463 71.14 14.433 71.919 14.317 Z M 63.201 6.349 L 63.201 4.163 L 71.919 4.163 L 71.919 6.349 L 63.201 6.349 Z M 78.271 17 C 77.005 17 75.893 16.726 74.936 16.179 C 73.979 15.632 73.23 14.872 72.69 13.901 C 72.157 12.929 71.891 11.811 71.891 10.547 C 71.891 9.182 72.154 7.999 72.678 6.997 C 73.203 5.987 73.933 5.204 74.867 4.649 C 75.801 4.094 76.881 3.816 78.109 3.816 C 79.405 3.816 80.506 4.121 81.409 4.73 C 82.32 5.331 82.995 6.183 83.435 7.286 C 83.875 8.388 84.041 9.687 83.933 11.183 L 81.166 11.183 L 81.166 10.165 C 81.158 8.808 80.918 7.818 80.448 7.193 C 79.977 6.569 79.236 6.256 78.225 6.256 C 77.082 6.256 76.233 6.611 75.677 7.32 C 75.121 8.022 74.844 9.051 74.844 10.408 C 74.844 11.673 75.121 12.652 75.677 13.346 C 76.233 14.039 77.044 14.386 78.109 14.386 C 78.796 14.386 79.386 14.236 79.88 13.935 C 80.382 13.627 80.768 13.184 81.038 12.606 L 83.794 13.438 C 83.315 14.564 82.574 15.439 81.571 16.063 C 80.575 16.688 79.475 17 78.271 17 Z M 73.964 11.183 L 73.964 9.078 L 82.567 9.078 L 82.567 11.183 Z M 85.127 16.653 L 85.127 4.163 L 87.593 4.163 L 87.593 7.205 L 87.292 6.812 C 87.441 6.406 87.647 6.024 87.906 5.678 C 88.162 5.337 88.48 5.047 88.844 4.823 C 89.158 4.612 89.501 4.448 89.863 4.337 C 90.241 4.213 90.627 4.14 91.02 4.117 C 91.403 4.086 91.788 4.101 92.167 4.163 L 92.167 6.765 C 91.796 6.657 91.368 6.623 90.882 6.661 C 90.403 6.7 89.971 6.835 89.585 7.066 C 89.199 7.274 88.882 7.54 88.635 7.864 C 88.396 8.188 88.218 8.558 88.103 8.974 C 87.987 9.383 87.929 9.826 87.929 10.304 L 87.929 16.653 Z M 97.774 17 C 96.624 17 95.621 16.711 94.764 16.133 C 93.907 15.554 93.243 14.768 92.772 13.773 C 92.302 12.779 92.066 11.657 92.066 10.408 C 92.066 9.144 92.302 8.018 92.772 7.031 C 93.251 6.037 93.926 5.254 94.799 4.683 C 95.671 4.105 96.697 3.816 97.878 3.816 C 99.067 3.816 100.063 4.105 100.866 4.683 C 101.676 5.254 102.29 6.037 102.707 7.031 C 103.124 8.026 103.332 9.151 103.332 10.408 C 103.332 11.65 103.124 12.771 102.707 13.773 C 102.29 14.768 101.669 15.554 100.843 16.133 C 100.017 16.711 98.994 17 97.774 17 Z M 98.203 14.502 C 98.951 14.502 99.553 14.332 100.009 13.993 C 100.472 13.646 100.808 13.164 101.016 12.548 C 101.232 11.931 101.34 11.218 101.34 10.408 C 101.34 9.591 101.232 8.878 101.016 8.269 C 100.808 7.652 100.48 7.174 100.032 6.835 C 99.584 6.488 99.006 6.314 98.295 6.314 C 97.547 6.314 96.929 6.499 96.443 6.869 C 95.956 7.232 95.597 7.725 95.366 8.35 C 95.134 8.966 95.019 9.653 95.019 10.408 C 95.019 11.171 95.131 11.865 95.354 12.49 C 95.586 13.107 95.937 13.596 96.408 13.959 C 96.879 14.321 97.477 14.502 98.203 14.502 Z M 101.34 16.653 L 101.34 7.887 L 100.993 7.887 L 100.993 0 L 103.807 0 L 103.807 16.653 Z M 134.822 16.653 L 134.822 9.067 C 134.822 8.211 134.61 7.544 134.185 7.066 C 133.761 6.58 133.185 6.337 132.46 6.337 C 132.012 6.337 131.611 6.441 131.256 6.65 C 130.901 6.85 130.619 7.151 130.411 7.552 C 130.202 7.945 130.098 8.415 130.098 8.963 L 128.859 8.234 C 128.851 7.37 129.044 6.611 129.438 5.956 C 129.839 5.293 130.38 4.776 131.059 4.406 C 131.738 4.036 132.495 3.851 133.328 3.851 C 134.71 3.851 135.768 4.267 136.501 5.1 C 137.242 5.925 137.613 7.012 137.613 8.361 L 137.613 16.653 Z M 119.781 16.653 L 119.781 4.163 L 122.248 4.163 L 122.248 8.037 L 122.595 8.037 L 122.595 16.653 Z M 127.319 16.653 L 127.319 9.101 C 127.319 8.23 127.107 7.552 126.682 7.066 C 126.258 6.58 125.679 6.337 124.945 6.337 C 124.235 6.337 123.664 6.58 123.232 7.066 C 122.807 7.552 122.595 8.184 122.595 8.963 L 121.344 8.13 C 121.344 7.32 121.545 6.592 121.947 5.944 C 122.348 5.297 122.888 4.788 123.567 4.418 C 124.255 4.04 125.023 3.851 125.872 3.851 C 126.806 3.851 127.585 4.051 128.211 4.452 C 128.843 4.846 129.314 5.385 129.623 6.071 C 129.94 6.75 130.098 7.517 130.098 8.373 L 130.098 16.653 Z M 110.3 17 C 109.396 17 108.632 16.83 108.007 16.491 C 107.382 16.144 106.907 15.686 106.583 15.115 C 106.266 14.544 106.108 13.916 106.108 13.23 C 106.108 12.629 106.208 12.089 106.409 11.611 C 106.61 11.125 106.919 10.709 107.335 10.362 C 107.752 10.007 108.292 9.718 108.956 9.494 C 109.458 9.333 110.045 9.186 110.716 9.055 C 111.446 8.916 112.18 8.796 112.916 8.697 C 113.711 8.581 114.541 8.458 115.406 8.326 L 114.41 8.893 C 114.418 8.03 114.225 7.394 113.831 6.985 C 113.437 6.576 112.773 6.372 111.839 6.372 C 111.276 6.372 110.732 6.503 110.207 6.765 C 109.682 7.027 109.315 7.478 109.107 8.118 L 106.56 7.32 C 106.868 6.264 107.455 5.416 108.32 4.776 C 109.192 4.136 110.365 3.816 111.839 3.816 C 112.951 3.816 113.927 3.997 114.769 4.36 C 115.618 4.722 116.247 5.316 116.656 6.141 C 116.88 6.58 117.015 7.031 117.062 7.494 C 117.108 7.949 117.131 8.446 117.131 8.986 L 117.131 16.653 L 114.688 16.653 L 114.688 13.947 L 115.093 14.386 C 114.53 15.288 113.87 15.951 113.113 16.375 C 112.364 16.792 111.427 17 110.3 17 Z M 110.855 14.78 C 111.488 14.78 112.029 14.668 112.476 14.444 C 112.924 14.221 113.279 13.947 113.541 13.623 C 113.812 13.299 113.993 12.995 114.086 12.71 C 114.232 12.355 114.313 11.95 114.329 11.495 C 114.352 11.033 114.364 10.659 114.364 10.373 L 115.22 10.628 C 114.379 10.759 113.657 10.875 113.055 10.975 C 112.453 11.075 111.936 11.171 111.504 11.264 C 111.071 11.349 110.689 11.445 110.357 11.553 C 110.033 11.669 109.759 11.804 109.535 11.958 C 109.311 12.112 109.138 12.289 109.014 12.49 C 108.898 12.69 108.841 12.925 108.841 13.195 C 108.841 13.504 108.918 13.777 109.072 14.016 C 109.227 14.248 109.45 14.433 109.744 14.571 C 110.045 14.71 110.415 14.78 110.855 14.78 Z" fill="rgb(117, 113, 112)"></path></svg>