<svg xmlns="http://www.w3.org/2000/svg" width="48.694" height="20" fill="none" overflow="visible"><path d="M 42.193 3.111 C 40.706 3.979 39.309 5.012 38.001 6.21 C 36.693 7.376 35.415 8.574 34.165 9.802 C 33.452 10.491 32.753 11.195 32.069 11.913 L 30.018 14.069 C 29.647 14.502 29.261 14.922 28.858 15.326 C 28.457 15.731 28.07 16.151 27.699 16.583 C 28.317 16.435 28.927 16.255 29.527 16.044 C 30.089 15.855 30.654 15.675 31.222 15.506 C 31.703 15.407 32.179 15.287 32.649 15.146 C 33.147 14.998 33.653 14.878 34.165 14.787 C 34.662 14.668 35.171 14.608 35.682 14.608 C 36.217 14.578 36.707 14.652 37.153 14.832 C 37.718 15.042 38.06 15.401 38.179 15.91 C 38.268 16.239 38.238 16.554 38.09 16.853 C 38.586 16.706 39.077 16.541 39.561 16.359 C 40.067 16.179 40.542 16.014 40.989 15.865 L 43.575 15.056 C 44.435 14.758 45.314 14.518 46.206 14.338 C 46.444 14.278 46.727 14.248 47.054 14.248 C 47.411 14.218 47.723 14.248 47.99 14.338 C 48.258 14.428 48.451 14.592 48.57 14.832 C 48.719 15.042 48.734 15.356 48.615 15.775 C 48.525 16.044 48.347 16.269 48.079 16.448 C 47.812 16.598 47.5 16.718 47.143 16.808 C 46.789 16.897 46.432 16.972 46.073 17.032 C 45.716 17.062 45.433 17.107 45.225 17.167 C 44.224 17.464 43.227 17.778 42.237 18.11 L 39.294 19.008 C 38.747 19.169 38.197 19.319 37.644 19.457 C 37.049 19.637 36.484 19.667 35.949 19.547 C 35.741 19.517 35.518 19.427 35.28 19.278 C 34.775 18.889 34.537 18.529 34.566 18.2 C 34.596 17.871 34.73 17.541 34.968 17.212 L 34.433 17.212 C 33.362 17.392 32.292 17.616 31.222 17.886 C 30.338 18.132 29.46 18.401 28.59 18.694 C 27.725 18.994 26.827 19.19 25.915 19.278 C 25.588 19.308 25.261 19.248 24.934 19.098 C 24.606 18.978 24.369 18.724 24.22 18.335 C 24.101 18.005 24.101 17.691 24.22 17.392 C 24.342 17.057 24.506 16.74 24.711 16.449 C 23.848 16.958 23.031 17.392 22.258 17.751 C 21.515 18.08 20.949 18.32 20.563 18.47 C 19.734 18.822 18.901 19.166 18.065 19.502 C 17.174 19.862 16.282 20.026 15.39 19.996 C 14.409 19.936 13.814 19.667 13.606 19.188 C 13.398 18.709 13.442 18.11 13.74 17.392 C 14.007 16.643 14.438 15.85 15.033 15.012 C 15.616 14.158 16.241 13.334 16.906 12.542 C 17.59 11.763 18.214 11.09 18.779 10.521 C 19.344 9.922 19.716 9.533 19.894 9.353 L 20.518 8.724 L 17.976 8.724 C 17.144 8.724 16.296 8.74 15.434 8.77 C 13.71 8.83 12 8.919 10.306 9.039 C 8.581 9.129 6.857 9.263 5.132 9.443 C 4.508 9.533 3.899 9.623 3.304 9.713 C 2.68 9.772 2.055 9.877 1.431 10.027 C 1.282 10.057 1.119 10.102 0.94 10.162 C 0.762 10.222 0.598 10.222 0.45 10.162 C 0.122 10.042 -0.026 9.832 0.004 9.533 C 0.004 9.204 0.152 8.994 0.45 8.904 C 4.017 7.976 7.689 7.393 11.465 7.153 C 15.191 6.886 18.924 6.721 22.659 6.659 C 23.432 5.941 24.205 5.237 24.978 4.548 C 25.759 3.853 26.547 3.164 27.342 2.483 C 27.728 2.124 28.174 1.674 28.68 1.136 C 29.215 0.567 29.75 0.207 30.285 0.058 C 30.582 -0.032 30.835 -0.017 31.043 0.103 C 31.281 0.192 31.46 0.357 31.578 0.597 C 31.698 0.806 31.742 1.046 31.712 1.315 C 31.683 1.585 31.564 1.824 31.355 2.034 C 30.442 2.805 29.536 3.583 28.635 4.369 C 27.737 5.123 26.859 5.902 26.004 6.704 C 26.45 6.704 26.866 6.764 27.253 6.884 C 27.609 6.974 27.922 7.123 28.189 7.333 C 28.487 7.542 28.695 7.857 28.813 8.276 C 28.903 8.635 28.858 8.949 28.68 9.219 C 28.507 9.453 28.277 9.639 28.011 9.758 C 27.743 9.848 27.461 9.862 27.163 9.803 C 26.896 9.713 26.688 9.518 26.539 9.219 C 26.153 9.069 25.707 8.964 25.201 8.904 C 24.696 8.815 24.22 8.77 23.774 8.77 L 23.328 9.174 C 22.026 10.422 20.733 11.68 19.448 12.946 C 18.11 14.293 17.055 15.745 16.282 17.302 C 17.322 17.092 18.393 16.793 19.493 16.404 C 20.595 16.014 21.681 15.579 22.748 15.102 C 23.818 14.623 24.874 14.114 25.915 13.575 C 26.956 13.006 27.922 12.422 28.814 11.823 C 29.936 10.663 31.081 9.525 32.248 8.41 C 33.423 7.286 34.627 6.193 35.86 5.132 C 36.605 4.473 37.363 3.829 38.135 3.201 C 38.895 2.582 39.684 1.997 40.498 1.45 C 40.825 1.21 41.182 1.061 41.568 1.001 C 41.985 0.911 42.327 1.076 42.594 1.495 C 42.743 1.764 42.773 2.064 42.684 2.393 C 42.624 2.692 42.46 2.932 42.193 3.111 Z" fill="rgb(117, 113, 112)"></path></svg>