<svg xmlns="http://www.w3.org/2000/svg" width="64.366" height="9.512" fill="none" overflow="visible"><path d="M 0 9.351 L 0 0.161 L 2.641 0.161 L 5.096 5.431 C 5.158 5.565 5.238 5.753 5.336 5.993 C 5.434 6.225 5.531 6.466 5.629 6.716 C 5.736 6.966 5.834 7.197 5.923 7.411 L 6.003 7.411 C 6.083 7.224 6.172 7.01 6.269 6.769 C 6.367 6.528 6.465 6.292 6.563 6.06 L 6.829 5.458 L 9.284 0.161 L 11.885 0.161 L 11.885 9.351 L 10.151 9.351 L 10.151 3.05 L 10.178 2.461 C 10.187 2.265 10.195 2.096 10.204 1.953 L 10.098 1.953 C 10.044 2.111 9.986 2.267 9.924 2.421 C 9.853 2.6 9.778 2.778 9.697 2.957 C 9.635 3.115 9.568 3.271 9.497 3.425 L 6.763 9.351 L 5.069 9.351 L 2.321 3.425 C 2.241 3.255 2.161 3.081 2.081 2.903 C 2.001 2.716 1.93 2.542 1.868 2.381 C 1.823 2.237 1.774 2.095 1.721 1.953 L 1.614 1.953 C 1.623 2.078 1.627 2.234 1.627 2.421 C 1.636 2.609 1.641 2.805 1.641 3.01 C 1.65 3.206 1.654 3.398 1.654 3.585 L 1.654 9.351 Z M 14.616 9.351 L 14.616 0.161 L 16.336 0.161 L 16.336 9.351 Z M 19.07 9.351 L 19.07 0.161 L 20.791 0.161 L 20.791 7.826 L 26.567 7.826 L 26.567 9.351 Z M 27.384 9.351 L 32.012 0.161 L 33.973 0.161 L 38.602 9.351 L 36.708 9.351 L 35.721 7.371 L 30.145 7.371 L 29.158 9.351 Z M 30.838 5.953 L 35.027 5.953 L 33.813 3.451 C 33.749 3.312 33.682 3.174 33.613 3.037 C 33.533 2.849 33.449 2.658 33.36 2.462 C 33.289 2.286 33.213 2.112 33.133 1.94 C 33.062 1.788 33.013 1.694 32.986 1.659 L 32.879 1.659 C 32.786 1.868 32.692 2.078 32.599 2.288 C 32.492 2.519 32.39 2.743 32.293 2.956 C 32.215 3.127 32.135 3.297 32.052 3.465 Z M 40.355 9.351 L 40.355 0.161 L 41.996 0.161 L 47.398 5.525 C 47.505 5.623 47.629 5.753 47.772 5.913 C 47.925 6.067 48.076 6.223 48.225 6.381 C 48.385 6.542 48.519 6.684 48.625 6.809 L 48.732 6.809 C 48.721 6.586 48.712 6.363 48.705 6.141 C 48.697 5.913 48.693 5.686 48.692 5.458 L 48.692 0.161 L 50.346 0.161 L 50.346 9.351 L 48.759 9.351 L 43.343 3.933 C 43.121 3.71 42.89 3.469 42.649 3.211 C 42.459 3.005 42.268 2.8 42.076 2.595 L 41.983 2.595 C 41.991 2.729 41.996 2.939 41.996 3.224 C 42.005 3.509 42.009 3.817 42.009 4.147 L 42.009 9.351 Z M 58.524 9.512 C 57.323 9.512 56.287 9.329 55.416 8.963 C 54.544 8.598 53.873 8.063 53.402 7.358 C 52.93 6.644 52.695 5.779 52.695 4.763 C 52.695 3.728 52.93 2.863 53.402 2.167 C 53.873 1.463 54.544 0.927 55.416 0.562 C 56.287 0.187 57.323 0 58.524 0 C 59.733 0 60.773 0.187 61.645 0.562 C 62.526 0.927 63.197 1.463 63.659 2.167 C 64.131 2.863 64.366 3.728 64.366 4.763 C 64.366 5.779 64.131 6.644 63.659 7.358 C 63.197 8.063 62.526 8.598 61.645 8.963 C 60.773 9.329 59.733 9.512 58.524 9.512 Z M 58.537 8.053 C 59.115 8.053 59.649 7.991 60.138 7.866 C 60.636 7.741 61.067 7.549 61.431 7.291 C 61.799 7.039 62.097 6.699 62.299 6.301 C 62.503 5.9 62.605 5.431 62.605 4.896 L 62.605 4.589 C 62.605 4.063 62.503 3.603 62.299 3.211 C 62.097 2.813 61.799 2.473 61.431 2.221 C 61.067 1.962 60.636 1.77 60.138 1.646 C 59.649 1.521 59.115 1.458 58.537 1.458 C 57.95 1.458 57.408 1.521 56.91 1.646 C 56.421 1.771 55.989 1.962 55.616 2.221 C 55.255 2.475 54.961 2.815 54.762 3.211 C 54.567 3.603 54.469 4.063 54.469 4.589 L 54.469 4.896 C 54.469 5.431 54.567 5.9 54.762 6.301 C 54.961 6.696 55.255 7.036 55.616 7.291 C 55.989 7.549 56.421 7.741 56.91 7.866 C 57.408 7.991 57.95 8.053 58.537 8.053 Z" fill="rgb(117, 113, 112)"></path></svg>