<svg xmlns="http://www.w3.org/2000/svg" width="112.499" height="22.374" fill="none" overflow="visible"><path d="M 2.771 2.492 C 4.303 0.989 6.383 0.111 8.491 0.002 C 9.212 0.002 9.936 0.006 10.657 0 C 10.621 0.795 10.657 1.592 10.636 2.387 C 10.534 4.163 9.894 5.9 8.818 7.294 C 7.418 9.169 5.278 10.427 3.005 10.752 C 2.013 10.917 1.006 10.812 0.007 10.841 C 0.024 9.966 -0.03 9.089 0.037 8.216 C 0.232 6.052 1.226 3.979 2.771 2.492 Z M 11.326 0 C 12.099 0.009 12.872 -0.005 13.648 0.004 C 15.578 0.144 17.483 0.906 18.936 2.226 C 20.54 3.64 21.638 5.662 21.92 7.822 C 22.043 8.824 21.965 9.837 22.013 10.843 C 21.337 10.841 20.663 10.839 19.987 10.843 C 18.325 10.796 16.692 10.244 15.301 9.313 C 14.66 8.841 14.001 8.363 13.52 7.708 C 12.46 6.487 11.752 4.985 11.477 3.373 C 11.273 2.26 11.356 1.124 11.325 0 Z M 0.008 11.48 C 0.695 11.52 1.384 11.446 2.069 11.525 C 5 11.589 7.844 13.282 9.363 15.858 C 10.234 17.3 10.702 19.01 10.641 20.709 C 10.639 21.266 10.648 21.82 10.633 22.374 C 9.545 22.341 8.447 22.433 7.37 22.216 C 4.978 21.802 2.779 20.34 1.455 18.251 C 0.452 16.732 -0.048 14.878 0.004 13.045 C 0.004 12.522 0.004 12.001 0.008 11.48 Z M 18.352 11.716 C 19.531 11.446 20.746 11.491 21.944 11.491 L 21.996 11.544 C 21.97 12.709 22.059 13.887 21.832 15.038 C 21.353 17.621 19.689 19.927 17.451 21.194 C 16.058 21.991 14.459 22.384 12.867 22.365 C 12.357 22.368 11.846 22.357 11.337 22.372 C 11.337 21.408 11.298 20.439 11.404 19.48 C 11.651 17.158 12.873 14.996 14.63 13.535 C 15.718 12.653 16.996 12.014 18.352 11.716 Z M 30.89 18.062 C 30.89 18.454 30.758 18.786 30.495 19.057 C 30.245 19.314 29.93 19.441 29.548 19.441 C 29.182 19.441 28.873 19.314 28.624 19.057 C 28.375 18.786 28.25 18.454 28.25 18.062 L 28.25 4.086 C 28.25 3.694 28.375 3.37 28.624 3.114 C 28.888 2.843 29.211 2.707 29.592 2.707 C 29.974 2.707 30.282 2.843 30.517 3.114 C 30.766 3.37 30.89 3.695 30.89 4.087 L 30.89 18.063 Z M 41.489 7.343 C 41.871 7.343 42.186 7.478 42.436 7.75 C 42.685 8.006 42.809 8.331 42.809 8.722 L 42.809 14.466 C 42.809 16.064 42.377 17.33 41.511 18.265 C 40.646 19.2 39.399 19.667 37.77 19.667 C 36.142 19.667 34.895 19.2 34.03 18.265 C 33.179 17.33 32.753 16.064 32.753 14.466 L 32.753 8.722 C 32.753 8.33 32.878 8.006 33.127 7.749 C 33.377 7.478 33.692 7.343 34.074 7.343 C 34.455 7.343 34.77 7.478 35.02 7.75 C 35.269 8.006 35.394 8.331 35.394 8.722 L 35.394 14.466 C 35.394 15.386 35.592 16.072 35.988 16.524 C 36.384 16.961 36.978 17.18 37.77 17.18 C 38.577 17.18 39.179 16.961 39.575 16.524 C 39.971 16.071 40.169 15.385 40.169 14.466 L 40.169 8.722 C 40.169 8.33 40.294 8.006 40.543 7.749 C 40.792 7.478 41.108 7.343 41.489 7.343 Z M 50.751 7.116 C 51.925 7.116 52.79 7.411 53.348 7.999 C 53.905 8.572 54.272 9.318 54.448 10.237 L 54.074 10.034 L 54.25 9.672 C 54.426 9.325 54.698 8.956 55.064 8.564 C 55.431 8.157 55.871 7.817 56.384 7.546 C 56.913 7.26 57.499 7.116 58.145 7.116 C 59.201 7.116 60.001 7.35 60.543 7.818 C 61.101 8.285 61.482 8.911 61.688 9.695 C 61.893 10.464 61.996 11.323 61.996 12.273 L 61.996 18.062 C 61.996 18.454 61.871 18.786 61.622 19.057 C 61.372 19.314 61.057 19.441 60.676 19.441 C 60.294 19.441 59.979 19.314 59.729 19.057 C 59.48 18.786 59.355 18.454 59.355 18.062 L 59.355 12.273 C 59.355 11.775 59.297 11.331 59.179 10.939 C 59.062 10.532 58.849 10.207 58.541 9.966 C 58.233 9.725 57.793 9.605 57.221 9.605 C 56.663 9.605 56.187 9.725 55.79 9.967 C 55.406 10.196 55.093 10.533 54.888 10.939 C 54.698 11.331 54.602 11.776 54.602 12.273 L 54.602 18.063 C 54.602 18.455 54.477 18.786 54.228 19.058 C 53.979 19.314 53.663 19.442 53.282 19.442 C 52.901 19.442 52.585 19.314 52.336 19.058 C 52.086 18.786 51.962 18.454 51.962 18.062 L 51.962 12.273 C 51.962 11.775 51.903 11.331 51.786 10.939 C 51.668 10.532 51.455 10.207 51.148 9.966 C 50.839 9.725 50.399 9.605 49.827 9.605 C 49.27 9.605 48.793 9.725 48.397 9.967 C 48.001 10.208 47.7 10.532 47.495 10.939 C 47.304 11.331 47.209 11.776 47.209 12.273 L 47.209 18.063 C 47.209 18.455 47.084 18.786 46.834 19.058 C 46.585 19.314 46.27 19.442 45.888 19.442 C 45.507 19.442 45.192 19.314 44.942 19.058 C 44.693 18.786 44.568 18.454 44.568 18.062 L 44.568 8.723 C 44.568 8.331 44.693 8.006 44.942 7.75 C 45.192 7.479 45.507 7.343 45.888 7.343 C 46.27 7.343 46.585 7.479 46.834 7.75 C 47.084 8.007 47.209 8.331 47.209 8.723 L 47.209 9.695 L 46.879 9.627 C 47.011 9.371 47.194 9.099 47.428 8.813 C 47.678 8.497 47.967 8.216 48.287 7.976 C 48.624 7.72 48.998 7.516 49.409 7.366 C 49.82 7.2 50.267 7.117 50.751 7.117 Z M 66.24 18.062 C 66.24 18.454 66.115 18.786 65.866 19.057 C 65.617 19.314 65.301 19.441 64.92 19.441 C 64.538 19.441 64.223 19.314 63.973 19.057 C 63.724 18.786 63.6 18.454 63.6 18.062 L 63.6 8.722 C 63.6 8.33 63.724 8.006 63.973 7.749 C 64.223 7.478 64.538 7.343 64.92 7.343 C 65.301 7.343 65.617 7.478 65.866 7.75 C 66.115 8.006 66.24 8.331 66.24 8.722 L 66.24 18.062 Z M 64.898 5.873 C 64.399 5.873 64.047 5.79 63.841 5.624 C 63.636 5.458 63.534 5.164 63.534 4.742 L 63.534 4.312 C 63.534 3.875 63.644 3.581 63.863 3.43 C 64.098 3.264 64.45 3.182 64.92 3.182 C 65.433 3.182 65.793 3.264 65.998 3.43 C 66.203 3.596 66.306 3.89 66.306 4.313 L 66.306 4.742 C 66.306 5.18 66.196 5.481 65.976 5.647 C 65.756 5.798 65.397 5.873 64.898 5.873 Z M 74.147 7.116 C 75.233 7.116 76.054 7.35 76.611 7.818 C 77.184 8.285 77.572 8.911 77.778 9.695 C 77.998 10.464 78.108 11.323 78.108 12.273 L 78.108 18.062 C 78.108 18.454 77.983 18.786 77.734 19.057 C 77.484 19.314 77.169 19.441 76.788 19.441 C 76.406 19.441 76.091 19.314 75.841 19.057 C 75.592 18.786 75.467 18.454 75.467 18.062 L 75.467 12.273 C 75.467 11.775 75.401 11.331 75.269 10.939 C 75.152 10.532 74.932 10.207 74.609 9.966 C 74.287 9.725 73.824 9.605 73.223 9.605 C 72.636 9.605 72.137 9.725 71.726 9.967 C 71.339 10.199 71.019 10.535 70.802 10.939 C 70.597 11.331 70.494 11.776 70.494 12.273 L 70.494 18.063 C 70.494 18.455 70.37 18.786 70.12 19.058 C 69.871 19.314 69.555 19.442 69.174 19.442 C 68.792 19.442 68.477 19.314 68.228 19.058 C 67.978 18.786 67.854 18.454 67.854 18.062 L 67.854 8.723 C 67.854 8.331 67.978 8.006 68.228 7.75 C 68.477 7.479 68.792 7.343 69.174 7.343 C 69.555 7.343 69.871 7.479 70.12 7.75 C 70.37 8.007 70.494 8.331 70.494 8.723 L 70.494 9.695 L 70.164 9.627 C 70.296 9.371 70.487 9.099 70.736 8.813 C 70.986 8.512 71.279 8.232 71.616 7.976 C 71.954 7.72 72.335 7.516 72.761 7.366 C 73.186 7.2 73.648 7.117 74.147 7.117 Z M 91.172 13.403 C 91.172 14.64 90.901 15.733 90.358 16.683 C 89.83 17.618 89.111 18.348 88.202 18.876 C 87.307 19.404 86.302 19.668 85.187 19.668 C 84.072 19.668 83.06 19.404 82.15 18.876 C 81.255 18.348 80.537 17.617 79.994 16.683 C 79.466 15.733 79.202 14.64 79.202 13.403 C 79.202 12.167 79.466 11.082 79.994 10.147 C 80.537 9.197 81.255 8.458 82.15 7.931 C 83.06 7.388 84.072 7.116 85.187 7.116 C 86.302 7.116 87.307 7.388 88.202 7.931 C 89.111 8.459 89.83 9.197 90.358 10.147 C 90.901 11.082 91.172 12.167 91.172 13.403 Z M 88.532 13.403 C 88.532 12.635 88.378 11.971 88.07 11.413 C 87.776 10.84 87.373 10.396 86.859 10.079 C 86.361 9.763 85.803 9.604 85.187 9.604 C 84.571 9.604 84.006 9.763 83.493 10.079 C 82.994 10.396 82.59 10.841 82.282 11.413 C 81.989 11.971 81.842 12.635 81.842 13.403 C 81.842 14.157 81.989 14.821 82.282 15.393 C 82.59 15.951 82.994 16.389 83.493 16.706 C 84.006 17.022 84.571 17.18 85.187 17.18 C 85.803 17.18 86.361 17.022 86.859 16.705 C 87.373 16.388 87.776 15.951 88.07 15.393 C 88.378 14.82 88.532 14.157 88.532 13.403 Z M 101.014 7.343 C 101.396 7.343 101.711 7.478 101.961 7.75 C 102.21 8.006 102.334 8.331 102.334 8.722 L 102.334 14.466 C 102.334 16.064 101.902 17.33 101.036 18.265 C 100.17 19.2 98.924 19.667 97.295 19.667 C 95.667 19.667 94.42 19.2 93.554 18.265 C 92.704 17.33 92.278 16.064 92.278 14.466 L 92.278 8.722 C 92.278 8.33 92.403 8.006 92.652 7.749 C 92.902 7.478 93.217 7.343 93.599 7.343 C 93.98 7.343 94.295 7.478 94.545 7.75 C 94.794 8.006 94.919 8.331 94.919 8.722 L 94.919 14.466 C 94.919 15.386 95.117 16.072 95.513 16.524 C 95.909 16.961 96.503 17.18 97.295 17.18 C 98.102 17.18 98.704 16.961 99.1 16.524 C 99.496 16.071 99.694 15.385 99.694 14.466 L 99.694 8.722 C 99.694 8.33 99.819 8.006 100.068 7.749 C 100.317 7.478 100.633 7.343 101.014 7.343 Z M 103.411 17.564 C 103.264 17.353 103.198 17.082 103.213 16.75 C 103.227 16.419 103.418 16.132 103.785 15.891 C 104.007 15.743 104.271 15.68 104.533 15.71 C 104.797 15.725 105.054 15.861 105.303 16.117 C 105.729 16.555 106.176 16.894 106.646 17.135 C 107.115 17.376 107.702 17.497 108.406 17.497 C 108.626 17.482 108.868 17.452 109.132 17.406 C 109.396 17.346 109.624 17.225 109.814 17.045 C 110.019 16.848 110.122 16.554 110.122 16.162 C 110.122 15.831 110.012 15.567 109.792 15.371 C 109.572 15.175 109.279 15.009 108.912 14.873 C 108.522 14.725 108.126 14.597 107.724 14.489 C 107.269 14.353 106.799 14.202 106.315 14.036 C 105.86 13.878 105.425 13.665 105.017 13.403 C 104.619 13.13 104.288 12.766 104.049 12.34 C 103.8 11.903 103.675 11.353 103.675 10.69 C 103.675 9.936 103.88 9.295 104.291 8.768 C 104.702 8.24 105.23 7.832 105.875 7.546 C 106.529 7.261 107.233 7.115 107.944 7.116 C 108.399 7.116 108.875 7.177 109.374 7.297 C 109.873 7.403 110.35 7.584 110.804 7.84 C 111.259 8.082 111.641 8.406 111.949 8.813 C 112.11 9.039 112.205 9.31 112.235 9.627 C 112.264 9.944 112.125 10.23 111.816 10.486 C 111.597 10.667 111.34 10.75 111.046 10.735 C 110.753 10.705 110.511 10.599 110.32 10.418 C 110.071 10.086 109.734 9.823 109.308 9.627 C 108.897 9.431 108.421 9.333 107.878 9.333 C 107.633 9.336 107.39 9.366 107.152 9.423 C 106.902 9.468 106.682 9.582 106.492 9.763 C 106.301 9.928 106.205 10.2 106.205 10.577 C 106.205 10.923 106.315 11.202 106.536 11.413 C 106.756 11.609 107.049 11.775 107.416 11.911 C 107.797 12.032 108.2 12.152 108.626 12.273 C 109.066 12.394 109.514 12.537 109.968 12.702 C 110.423 12.868 110.841 13.087 111.222 13.358 C 111.604 13.63 111.912 13.984 112.147 14.421 C 112.381 14.843 112.499 15.386 112.499 16.049 C 112.499 16.818 112.279 17.474 111.838 18.017 C 111.399 18.56 110.848 18.974 110.188 19.261 C 109.545 19.529 108.858 19.667 108.164 19.668 C 107.298 19.668 106.433 19.517 105.567 19.216 C 104.702 18.899 103.983 18.348 103.411 17.564 Z" fill="rgb(117, 113, 112)"></path></svg>